<svg xmlns="http://www.w3.org/2000/svg" xmlns:xlink="http://www.w3.org/1999/xlink" xmlns:inkscape="http://www.inkscape.org/namespaces/inkscape" version="1.1" width="343" height="390" viewBox="0 0 343 390">
<defs>
<path id="font_1_1" d="M.33399964 .30233766C.33999635 .32835389 .36299134 .42037965 .43299867 .42037965 .43798829 .42037965 .46199037 .42037965 .48298646 .40734864 .45498658 .402359 .43499757 .37734986 .43499757 .35334779 .43499757 .33735658 .44599916 .31835938 .47299195 .31835938 .49499513 .31835938 .5269928 .3363495 .5269928 .37635804 .5269928 .42837525 .46798707 .4423828 .43399049 .4423828 .37599183 .4423828 .34098817 .38935853 .32899476 .36634828 .3039856 .43237306 .25 .4423828 .22099304 .4423828 .116989139 .4423828 .05999756 .3133545 .05999756 .28834535 .05999756 .27833558 .069992069 .27833558 .07199097 .27833558 .07998657 .27833558 .08299255 .28033448 .084991458 .28933717 .11898804 .39535523 .18499756 .42037965 .21899414 .42037965 .23799134 .42037965 .272995 .4113617 .272995 .35334779 .272995 .32235719 .2559967 .25532533 .21899414 .11528015 .20298767 .053268434 .16799927 .011245728 .12399292 .011245728 .117996219 .011245728 .09498596 .011245728 .07398987 .024276734 .09899902 .029266358 .12098694 .05027771 .12098694 .07827759 .12098694 .105270389 .09899902 .11328125 .083999637 .11328125 .053985597 .11328125 .0289917 .08728027 .0289917 .055267335 .0289917 .009246826 .07899475-.0107421879 .12298584-.0107421879 .18899536-.0107421879 .22499085 .059280397 .22799683 .0652771 .23999024 .028274537 .27598573-.0107421879 .33599855-.0107421879 .43899537-.0107421879 .49598695 .118270877 .49598695 .14328003 .49598695 .1532898 .4869995 .1532898 .48399354 .1532898 .47499085 .1532898 .47299195 .14929199 .47099305 .14228821 .43798829 .03527832 .36999513 .011245728 .33799745 .011245728 .29899598 .011245728 .2829895 .043273927 .2829895 .07727051 .2829895 .09927368 .2889862 .121276859 .2999878 .16529846L.33399964 .30233766Z"/>
<path id="font_1_2" d="M.48599244 .38136292C.48999024 .39537049 .48999024 .39736939 .48999024 .40437318 .48999024 .42237855 .47599793 .43138124 .46099855 .43138124 .45098878 .43138124 .43499757 .42536927 .42599488 .41036988 .42399598 .405365 .41600038 .37435914 .4119873 .35635377 .40499879 .33035279 .397995 .30334474 .3919983 .27633668L.34700013 .09628296C.34298707 .08126831 .2999878 .011245728 .23399353 .011245728 .18299866 .011245728 .17199707 .055267335 .17199707 .0922699 .17199707 .1382904 .18899536 .20030213 .22299195 .28833009 .23899842 .3293457 .24299622 .3403473 .24299622 .36035157 .24299622 .405365 .21099854 .4423828 .16099549 .4423828 .06599426 .4423828 .0289917 .29733277 .0289917 .28833009 .0289917 .27833558 .038986207 .27833558 .040985109 .27833558 .050994874 .27833558 .051986696 .28033448 .056991579 .29634095 .083999637 .3903656 .12399292 .42037965 .1579895 .42037965 .1659851 .42037965 .18299866 .42037965 .18299866 .3883667 .18299866 .36335755 .17298889 .3373413 .1659851 .31834413 .12599182 .21231079 .10798645 .1552887 .10798645 .10827637 .10798645 .019256592 .17098999-.0107421879 .22999573-.0107421879 .2689972-.0107421879 .30299378 .0062561037 .33099366 .03425598 .31799317-.017745972 .30599977-.06674194 .2659912-.11973572 .23999024-.15385437 .20199585-.18309021 .1559906-.18309021 .14199829-.18309021 .09700012-.18005371 .07998657-.14074707 .09599304-.14074707 .10899353-.14074707 .12298584-.1287384 .1329956-.11973572 .14299011-.10673523 .14299011-.08773804 .14299011-.056747438 .115997318-.052734376 .10598755-.052734376 .08299255-.052734376 .049987794-.068740848 .049987794-.11773682 .049987794-.16796875 .09399414-.20507813 .1559906-.20507813 .25898744-.20507813 .3619995-.11373901 .3899994-.00074768069L.48599244 .38136292Z"/>
<path id="font_2_1" d="M.13198853 .327713V.35173036C.13198853 .6047821 .2559967 .64100649 .30699159 .64100649 .33099366 .64100649 .37298585 .634964 .394989 .6007538 .37998963 .6007538 .33999635 .6007538 .33999635 .5557556 .33999635 .524765 .3639984 .5097656 .38598634 .5097656 .4019928 .5097656 .43199159 .51875308 .43199159 .5577545 .43199159 .6178589 .3880005 .6660156 .30499269 .6660156 .1769867 .6660156 .041992189 .5367584 .041992189 .31570436 .041992189 .048553468 .1579895-.022460938 .25099183-.022460938 .3619995-.022460938 .45700074 .07156372 .45700074 .2036438 .45700074 .33070375 .36799623 .4267578 .25698854 .4267578 .18899536 .4267578 .1519928 .37573243 .13198853 .327713M.25099183 .0055389406C.18798828 .0055389406 .1579895 .06556702 .1519928 .080566409 .13398743 .127594 .13398743 .2076416 .13398743 .22564698 .13398743 .30369569 .1659851 .40374757 .2559967 .40374757 .27198792 .40374757 .31799317 .40374757 .34899903 .34172059 .36698915 .30470277 .36698915 .2536621 .36698915 .20463562 .36698915 .15661621 .36698915 .10658264 .34999085 .0705719 .31999208 .010528564 .27398683 .0055389406 .25099183 .0055389406Z"/>
<path id="font_2_2" d="M.16299439 .4569702C.116989139 .486969 .11299133 .52098086 .11299133 .5379791 .11299133 .598999 .17799378 .64100649 .24899292 .64100649 .32199098 .64100649 .38598634 .58898928 .38598634 .51698306 .38598634 .45996095 .34700013 .4119568 .2869873 .37695313L.16299439 .4569702M.30899049 .36193849C.3809967 .3989563 .42999269 .45095826 .42999269 .51698306 .42999269 .6090088 .34098817 .6660156 .25 .6660156 .1499939 .6660156 .068984989 .59199526 .068984989 .49897767 .068984989 .4809723 .070999149 .43595887 .11299133 .38894654 .12399292 .37695313 .16099549 .35194398 .18598938 .33494569 .12799073 .30592347 .041992189 .24984741 .041992189 .15072632 .041992189 .04458618 .14399719-.022460938 .24899292-.022460938 .3619995-.022460938 .45700074 .06060791 .45700074 .16773987 .45700074 .20379639 .44599916 .24885559 .4079895 .2909088 .3889923 .31193543 .37298585 .3219452 .30899049 .36193849M.20899964 .3199463 .33198548 .24183655C.3600006 .2228241 .40699769 .19277954 .40699769 .13169861 .40699769 .05760193 .33198548 .0055389406 .25 .0055389406 .1639862 .0055389406 .09199524 .067611698 .09199524 .15072632 .09199524 .20880127 .12399292 .27288819 .20899964 .3199463Z"/>
</defs>
<path transform="matrix(1.00002,0,0,-1,30.115624,313.01)" stroke-width=".3985" stroke-linecap="butt" stroke-miterlimit="10" stroke-linejoin="miter" fill="none" stroke="#000000" d="M-27.88852 0H311.35664"/>
<path transform="matrix(-1.00002,-0,0,1,2.2265454,313.01)" stroke-width=".31879" stroke-linecap="round" stroke-linejoin="round" fill="none" stroke="#000000" d="M-1.19551 1.59401C-1.09587 .99626 0 .09961 .29886 0 0-.09961-1.09587-.99626-1.19551-1.59401"/>
<path transform="matrix(1.00002,0,0,-1,341.4785,313.01)" stroke-width=".31879" stroke-linecap="round" stroke-linejoin="round" fill="none" stroke="#000000" d="M-1.19551 1.59401C-1.09587 .99626 0 .09961 .29886 0 0-.09961-1.09587-.99626-1.19551-1.59401"/>
<use data-text="x" xlink:href="#font_1_1" transform="matrix(10.909318,0,0,-10.9091,324.6455,304.02003)"/>
<path transform="matrix(1.00002,0,0,-1,30.115624,313.01)" stroke-width=".3985" stroke-linecap="butt" stroke-miterlimit="10" stroke-linejoin="miter" fill="none" stroke="#000000" d="M0-27.88852V311.35664"/>
<path transform="matrix(0,1,1.00002,0,30.115624,340.89854)" stroke-width=".31879" stroke-linecap="round" stroke-linejoin="round" fill="none" stroke="#000000" d="M-1.19551 1.59401C-1.09587 .99626 0 .09961 .29886 0 0-.09961-1.09587-.99626-1.19551-1.59401"/>
<path transform="matrix(0,-1,-1.00002,-0,30.115624,1.6533814)" stroke-width=".31879" stroke-linecap="round" stroke-linejoin="round" fill="none" stroke="#000000" d="M-1.19551 1.59401C-1.09587 .99626 0 .09961 .29886 0 0-.09961-1.09587-.99626-1.19551-1.59401"/>
<use data-text="y" xlink:href="#font_1_2" transform="matrix(10.909318,0,0,-10.9091,38.584794,16.656006)"/>
<path transform="matrix(1.00002,0,0,-1,30.115624,313.01)" stroke-width=".3985" stroke-linecap="butt" stroke-miterlimit="10" stroke-linejoin="miter" fill="none" stroke="#000000" d="M170.08086-2.83484V2.83484"/>
<use data-text="6" xlink:href="#font_2_1" transform="matrix(10.909318,0,0,-10.9091,197.47299,327.864)"/>
<path transform="matrix(1.00002,0,0,-1,30.115624,313.01)" stroke-width=".3985" stroke-linecap="butt" stroke-miterlimit="10" stroke-linejoin="miter" fill="none" stroke="#000000" d="M226.77448-2.83484V2.83484"/>
<use data-text="8" xlink:href="#font_2_2" transform="matrix(10.909318,0,0,-10.9091,254.16712,327.864)"/>
<path transform="matrix(1.00002,0,0,-1,30.115624,313.01)" stroke-width="1.59404" stroke-linecap="butt" stroke-miterlimit="10" stroke-linejoin="miter" fill="none" stroke="#0000ff" d="M156.66313-3.49002C156.4659-3.73512 156.4659-3.73512 156.68039-3.4992 156.89487-3.2633 157.23885-2.92354 157.45333-2.72887 157.66782-2.5342 158.0118-2.25514 158.22628-2.09605 158.44075-1.93697 158.78473-1.71053 158.99922-1.58221 159.2137-1.4539 159.55768-1.27321 159.77216-1.17131 159.98665-1.06941 160.33063-.92744 160.5451-.84776 160.7596-.76807 161.10356-.65796 161.31806-.59688 161.53253-.5358 161.87651-.45305 162.09099-.40744 162.30548-.36183 162.64946-.30145 162.86394-.26816 163.07843-.23486 163.42241-.1909 163.6369-.16739 163.85138-.14386 164.19536-.11427 164.40985-.0986 164.62433-.08295 164.9683-.06445 165.18279-.05449 165.39728-.04454 165.74126-.03285 165.95574-.02681 166.17021-.02075 166.51419-.01404 166.72869-.0108 166.94316-.00757 167.28714-.0048 167.50162-.00345 167.71611-.00208 168.06009-.00131 168.27457-.00084 168.48906-.00037 168.83303-.00009 169.04752 0 169.262 .00009 169.60597 0 169.82045 0 170.03495 0 170.37892 0 170.5934 0 170.80789 0 171.15186 .00003 171.36635 0 171.58083-.00003 171.9248 .00021 172.1393-.00041 172.35378-.00107 172.69776-.00294 172.91223-.00473 173.12673-.00653 173.47069-.00998 173.68518-.0134 173.89966-.01682 174.24364-.02353 174.45813-.02939 174.6726-.03526 175.01659-.04655 175.23107-.05579 175.44556-.06502 175.78954-.08226 176.00402-.09601 176.2185-.10976 176.56247-.13533 176.77696-.15485 176.99144-.17435 177.33542-.21013 177.5499-.23659 177.76439-.26303 178.10839-.31084 178.32286-.34558 178.53736-.38031 178.88132-.44255 179.09581-.48701 179.31029-.53148 179.65427-.61047 179.86876-.66609 180.08324-.72173 180.42722-.8197 180.6417-.88799 180.85619-.95627 181.20015-1.0758 181.41464-1.15833 181.62912-1.24084 181.9731-1.38449 182.18759-1.48273 182.40207-1.58096 182.74605-1.75087 182.96053-1.86638 183.17502-1.9819 183.519-2.18105 183.73348-2.31535 183.94795-2.44968 184.29193-2.68 184.50643-2.8344 184.7209-2.98882 185.06488-3.25221 185.27936-3.42828 185.49385-3.60435 185.83783-3.90442 186.0523-4.10349 186.2668-4.30254 186.61077-4.63983 186.82526-4.863 187.03974-5.0862 187.38372-5.46338 187.59819-5.71208 187.81269-5.96077 188.15666-6.38017 188.37114-6.65544 188.58563-6.93073 188.9296-7.3935 189.14409-7.69614 189.35857-7.99878 189.70255-8.50581 189.91704-8.83673 190.13152-9.16765 190.4755-9.72127 190.68997-10.08116 190.90447-10.44104 191.24843-11.04135 191.46292-11.43066 191.6774-11.81998 192.02138-12.46802 192.23587-12.88702 192.45035-13.30605 192.79434-14.00162 193.00882-14.45064 193.22332-14.89966 193.56729-15.64442 193.78177-16.12328 193.99626-16.60211 194.34023-17.39369 194.55472-17.90187 194.7692-18.41006 195.11318-19.2487 195.32765-19.78601 195.54215-20.3233 195.88613-21.20882 196.1006-21.77438 196.3151-22.33994 196.65906-23.26955 196.87355-23.86223 197.08803-24.45493 197.432-25.42738 197.6465-26.04611 197.86098-26.66486 198.20496-27.67879 198.41944-28.3217 198.63393-28.96463 198.97789-30.01479 199.19239-30.67992 199.40686-31.34505 199.75084-32.43011 199.96533-33.11552 200.17981-33.80093 200.52379-34.91692 200.73827-35.61992 200.95276-36.32292 201.29674-37.46481 201.51122-38.18227 201.7257-38.89972 202.06967-40.06212 202.28417-40.79091 202.49864-41.51971 202.84262-42.6983 203.0571-43.43503 203.27159-44.17174 203.61557-45.36037 203.83005-46.10075 204.04454-46.84114 204.3885-48.03181 204.603-48.77124 204.81748-49.51067 205.16146-50.69626 205.37593-51.43005 205.59043-52.16383 205.9344-53.3371 206.14888-54.05989 206.36338-54.78268 206.70734-55.93349 206.92183-56.63954 207.1363-57.3456 207.4803-58.46556 207.6948-59.14868 207.90927-59.83182 208.25325-60.90974 208.46773-61.56311 208.68222-62.21648 209.0262-63.24109 209.24068-63.85773 209.45516-64.47437 209.79914-65.43527 210.01363-66.00743 210.2281-66.5796 210.57209-67.4622 210.78656-67.98155 211.00106-68.5009 211.34503-69.29279 211.55951-69.75063 211.774-70.20847 212.11797-70.8943 212.33246-71.28139 212.54694-71.66847 212.89092-72.23384 213.1054-72.5405 213.31989-72.84717 213.66387-73.27614 213.87834-73.49165 214.09284-73.70715 214.4368-73.98032 214.65129-74.09373 214.86577-74.20715 215.20975-74.30937 215.42424-74.30914 215.63872-74.30891 215.9827-74.21829 216.19718-74.09201 216.41167-73.96574 216.75563-73.66403 216.97013-73.39908 217.1846-73.13412 217.52858-72.59962 217.74308-72.18236 217.95755-71.76509 218.30153-70.97551 218.516-70.39165 218.7305-69.80779 219.07448-68.73941 219.28896-67.9742 219.50345-67.20897 219.84741-65.83838 220.0619-64.87637 220.27639-63.91435 220.62036-62.2158 220.83484-61.04062 221.04933-59.86543 221.39331-57.8118 221.60779-56.4064 221.82228-55.001 222.16626-52.5647 222.38076-50.91144 222.59523-49.25818 222.93921-46.41039 223.1537-44.49084 223.36818-42.5713 223.71216-39.28178 223.92664-37.0767 224.14113-34.87163 224.48509-31.10866 224.69959-28.5981 224.91407-26.08755 225.25804-21.81921 225.47254-18.98235 225.68701-16.1455 226.03099-11.33672 226.24547-8.15202 226.45996-4.96733 226.80394 .41579 227.01842 3.97069 227.2329 7.52559 227.57688 13.52084 227.79137 17.46933 228.00585 21.41782 228.34983 28.06267 228.5643 32.42865 228.7788 36.79465 229.12277 44.12799 229.33725 48.93646 229.55175 53.74495 229.8957 61.80806 230.1102 67.0849 230.32468 72.36172 230.66866 81.19629 230.88314 86.96823 231.09763 92.74017 231.4416 102.39056 231.65608 108.6851 231.87058 114.97966 232.42903 132.33498 232.39029 131.13014"/>
<path transform="matrix(-.62689259,.77907,.77908566,.62688,186.78189,316.50004)" stroke-width="1.27522" stroke-linecap="round" stroke-linejoin="round" fill="none" stroke="#0000ff" d="M-2.27148 3.02866C-2.0822 1.8929 0 .18927 .56786 0 0-.18927-2.0822-1.8929-2.27148-3.02866"/>
<path transform="matrix(.032140647,-.99945,-.99947008,-.03214,262.51057,181.87989)" stroke-width="1.27522" stroke-linecap="round" stroke-linejoin="round" fill="none" stroke="#0000ff" d="M-2.27148 3.02866C-2.0822 1.8929 0 .18927 .56786 0 0-.18927-2.0822-1.8929-2.27148-3.02866"/>
</svg>
